<svg xmlns="http://www.w3.org/2000/svg" width="32" height="32" viewBox="0 0 32 32" aria-hidden="true" data-template="disc-forensic">
  <circle cx="16.5" cy="16.75" r="14" fill="#1a1a1a" opacity="0.1"/>
  <circle class="map-icon-disc" cx="16" cy="16" r="14" fill="#fdfbf7" stroke="#2563eb" stroke-width="1.5"/>
  <g fill="none" stroke="#2563eb" stroke-width="2" stroke-linecap="round" stroke-linejoin="round" transform="translate(4 4)">
<path d="M10 10h4" />
  <path d="M19 7V4a1 1 0 0 0-1-1h-2a1 1 0 0 0-1 1v3" />
  <path d="M20 21a2 2 0 0 0 2-2v-3.851c0-1.39-2-2.962-2-4.829V8a1 1 0 0 0-1-1h-4a1 1 0 0 0-1 1v11a2 2 0 0 0 2 2z" />
  <path d="M 22 16 L 2 16" />
  <path d="M4 21a2 2 0 0 1-2-2v-3.851c0-1.39 2-2.962 2-4.829V8a1 1 0 0 1 1-1h4a1 1 0 0 1 1 1v11a2 2 0 0 1-2 2z" />
  <path d="M9 7V4a1 1 0 0 0-1-1H6a1 1 0 0 0-1 1v3" />
  </g>
</svg>
