<svg xmlns="http://www.w3.org/2000/svg" width="32" height="32" viewBox="0 0 32 32" aria-hidden="true" data-template="disc-forensic">
  <circle cx="16.5" cy="16.75" r="14" fill="#1a1a1a" opacity="0.1"/>
  <circle class="map-icon-disc" cx="16" cy="16" r="14" fill="#fdfbf7" stroke="#0284c7" stroke-width="1.5"/>
  <g fill="none" stroke="#0284c7" stroke-width="2" stroke-linecap="round" stroke-linejoin="round" transform="translate(4 4)">
<path d="M7 16.3c2.2 0 4-1.83 4-4.05 0-1.16-.57-2.26-1.71-3.19S7.29 6.75 7 5.3c-.29 1.45-1.14 2.84-2.29 3.76S3 11.1 3 12.25c0 2.22 1.8 4.05 4 4.05z" />
  <path d="M12.56 6.6A10.97 10.97 0 0 0 14 3.02c.5 2.5 2 4.9 4 6.5s3 3.5 3 5.5a6.98 6.98 0 0 1-11.91 4.97" />
  </g>
</svg>
