<svg xmlns="http://www.w3.org/2000/svg" width="32" height="32" viewBox="0 0 32 32" aria-hidden="true" data-template="disc-forensic">
  <circle cx="16.5" cy="16.75" r="14" fill="#1a1a1a" opacity="0.1"/>
  <circle class="map-icon-disc" cx="16" cy="16" r="14" fill="#fdfbf7" stroke="#d97706" stroke-width="1.5"/>
  <g fill="none" stroke="#d97706" stroke-width="2" stroke-linecap="round" stroke-linejoin="round" transform="translate(4 4)">
<path d="M15 12h-5" />
  <path d="M15 8h-5" />
  <path d="M19 17V5a2 2 0 0 0-2-2H4" />
  <path d="M8 21h12a2 2 0 0 0 2-2v-1a1 1 0 0 0-1-1H11a1 1 0 0 0-1 1v1a2 2 0 1 1-4 0V5a2 2 0 1 0-4 0v2a1 1 0 0 0 1 1h3" />
  </g>
</svg>
