<svg xmlns="http://www.w3.org/2000/svg" width="32" height="32" viewBox="0 0 32 32" aria-hidden="true" data-template="disc-forensic">
  <circle cx="16.5" cy="16.75" r="14" fill="#1a1a1a" opacity="0.1"/>
  <circle class="map-icon-disc" cx="16" cy="16" r="14" fill="#fdfbf7" stroke="#9a3412" stroke-width="1.5"/>
  <g fill="none" stroke="#9a3412" stroke-width="2" stroke-linecap="round" stroke-linejoin="round" transform="translate(4 4)">
<path d="M11.562 3.266a.5.5 0 0 1 .876 0L15.39 8.87a1 1 0 0 0 1.516.294L21.183 5.5a.5.5 0 0 1 .798.519l-2.834 10.246a1 1 0 0 1-.956.734H5.81a1 1 0 0 1-.957-.734L2.02 6.02a.5.5 0 0 1 .798-.519l4.276 3.664a1 1 0 0 0 1.516-.294z" />
  <path d="M5 21h14" />
  </g>
</svg>
